<?xml version="1.0" encoding="UTF-8" standalone="no"?>
<!-- License Agreement at http://iconmonstr.com/license/ -->

<svg
   xmlns:dc="http://purl.org/dc/elements/1.1/"
   xmlns:cc="http://creativecommons.org/ns#"
   xmlns:rdf="http://www.w3.org/1999/02/22-rdf-syntax-ns#"
   xmlns:svg="http://www.w3.org/2000/svg"
   xmlns="http://www.w3.org/2000/svg"
   xmlns:sodipodi="http://sodipodi.sourceforge.net/DTD/sodipodi-0.dtd"
   xmlns:inkscape="http://www.inkscape.org/namespaces/inkscape"
   version="1.1"
   x="0px"
   y="0px"
   width="512px"
   height="512px"
   viewBox="0 0 512 512"
   enable-background="new 0 0 512 512"
   xml:space="preserve"
   id="svg2"
   inkscape:version="0.48.4 r9939"
   sodipodi:docname="sorry.svg"><metadata
     id="metadata9"><rdf:RDF><cc:Work
         rdf:about=""><dc:format>image/svg+xml</dc:format><dc:type
           rdf:resource="http://purl.org/dc/dcmitype/StillImage" /></cc:Work></rdf:RDF></metadata><defs
     id="defs7" /><sodipodi:namedview
     pagecolor="#ffffff"
     bordercolor="#666666"
     borderopacity="1"
     objecttolerance="10"
     gridtolerance="10"
     guidetolerance="10"
     inkscape:pageopacity="0"
     inkscape:pageshadow="2"
     inkscape:window-width="640"
     inkscape:window-height="480"
     id="namedview5"
     showgrid="false"
     inkscape:zoom="0.4609375"
     inkscape:cx="-122.57627"
     inkscape:cy="256"
     inkscape:window-x="0"
     inkscape:window-y="24"
     inkscape:window-maximized="0"
     inkscape:current-layer="svg2" /><path
     id="tv-18-icon"
     d="M272.334,155.875l65.033-64.945l-14.805-14.805l-66.584,66.584l-66.541-66.542l-14.805,14.805l64.99,64.903  H50v280h412v-280H272.334z M110,395.875v-200h292v200H110z M214.187,238.339c-12.271,0-22.221,9.949-22.221,22.222  c0,12.271,9.949,22.218,22.221,22.218c12.272,0,22.221-9.947,22.221-22.218C236.407,248.288,226.459,238.339,214.187,238.339z   M297.812,238.339c-12.272,0-22.221,9.949-22.221,22.222c0,12.271,9.948,22.218,22.221,22.218s22.221-9.947,22.221-22.218  C320.033,248.288,310.085,238.339,297.812,238.339z M329.202,348.376l-6.302,6.301c-25.088-15.271-41.037-21.842-66.9-21.842  s-41.812,6.571-66.9,21.842l-6.302-6.301c13.112-19.005,40.529-42.062,73.202-42.062  C288.674,306.314,316.09,329.371,329.202,348.376z"
     style="fill:#ffffff" /></svg>